<svg width="38.000000pt" height="38.000000pt" viewBox="0 0 250 250" fill="none" xmlns="http://www.w3.org/2000/svg">

<g filter="url(#filter0_d)">
<path d="M192.411 163.83H188.377V155.747H192.411C196.526 155.742 200.471 154.102 203.381 151.186C206.291 148.27 207.928 144.318 207.933 140.194V57.6357C207.928 53.512 206.292 49.5585 203.382 46.6425C200.472 43.7264 196.526 42.086 192.411 42.081H39.5875C35.4719 42.086 31.5263 43.7264 28.6164 46.6425C25.7064 49.5585 24.0696 53.512 24.0652 57.6357V140.2C24.0702 144.324 25.7071 148.277 28.617 151.192C31.5269 154.108 35.4722 155.748 39.5875 155.753H43.6211V163.836H39.5875C33.3337 163.828 27.3383 161.336 22.9164 156.905C18.4945 152.474 16.0072 146.466 16 140.2V57.6357C16.0072 51.3693 18.4948 45.3617 22.9172 40.9307C27.3395 36.4997 33.3354 34.0072 39.5895 34H192.411C198.665 34.0072 204.66 36.4997 209.083 40.9307C213.505 45.3617 215.993 51.3693 216 57.6357V140.2C215.993 146.467 213.505 152.475 209.083 156.906C204.66 161.337 198.665 163.829 192.411 163.836" fill="#F2C811"/>
<path d="M64.362 136.77C65.7993 136.77 67.2226 137.054 68.5505 137.605C69.8785 138.156 71.085 138.964 72.1014 139.982C73.1178 141.001 73.924 142.21 74.474 143.54C75.0241 144.871 75.3072 146.297 75.3072 147.737V173.027C75.3072 175.936 74.1538 178.726 72.1008 180.783C70.0478 182.84 67.2633 183.996 64.3599 183.996C62.9222 183.996 61.4985 183.713 60.1701 183.162C58.8416 182.611 57.6346 181.804 56.6178 180.785C55.601 179.767 54.7944 178.558 54.2441 177.227C53.6938 175.896 53.4105 174.47 53.4105 173.029V147.739C53.4105 144.83 54.5639 142.04 56.6169 139.983C58.6699 137.926 61.4544 136.77 64.3578 136.77H64.362Z" fill="#F2C811"/>
<path d="M98.7901 183.998C95.8865 183.998 93.1018 182.842 91.0484 180.785C88.9951 178.728 87.8413 175.938 87.8408 173.029V108.113C87.8408 105.204 88.9942 102.414 91.0474 100.356C93.1006 98.2992 95.8854 97.1434 98.789 97.1434C101.693 97.1434 104.477 98.2992 106.531 100.356C108.584 102.414 109.737 105.204 109.737 108.113V173.029C109.737 175.938 108.584 178.729 106.531 180.786C104.478 182.843 101.694 183.999 98.7901 184" fill="#F2C811"/>
<path d="M167.642 183.677C164.739 183.677 161.954 182.522 159.901 180.465C157.847 178.408 156.693 175.618 156.693 172.709V80.7793C156.693 77.8699 157.846 75.0798 159.899 73.0225C161.953 70.9653 164.737 69.8096 167.641 69.8096C170.545 69.8096 173.33 70.9653 175.383 73.0225C177.436 75.0798 178.589 77.8699 178.589 80.7793V172.709C178.589 175.618 177.436 178.408 175.383 180.466C173.33 182.523 170.546 183.679 167.642 183.68" fill="#F2C811"/>
<path d="M133.216 183.998C130.313 183.998 127.528 182.842 125.474 180.785C123.421 178.728 122.267 175.938 122.267 173.029V124.805C122.267 121.896 123.42 119.105 125.473 117.048C127.527 114.991 130.311 113.835 133.215 113.835C136.119 113.835 138.904 114.991 140.957 117.048C143.01 119.105 144.163 121.896 144.163 124.805V173.029C144.163 175.938 143.01 178.729 140.957 180.786C138.904 182.843 136.12 183.999 133.216 184" fill="#F2C811"/>
</g>
<g filter="url(#filter1_d)">
<rect x="148" y="168" width="87" height="65.0935" rx="5.21583" fill="#353535"/>
<rect x="148" y="168" width="87" height="10.8489" rx="5.21583" fill="#666666"/>
<rect x="148" y="173.633" width="87" height="5.21583" fill="#666666"/>
<rect x="148" y="168" width="41.7266" height="10.8489" rx="5.21583" fill="#CCCCCC"/>
<rect x="148" y="173.633" width="41.7266" height="5.21583" fill="#CCCCCC"/>
<rect x="177" y="168" width="29" height="10.8489" fill="#999999"/>
<rect x="160.727" y="220.473" width="26.705" height="9.38849" rx="2.08633" transform="rotate(-45 160.727 220.473)" fill="#A0A0A0"/>
<g filter="url(#filter2_d)">
<rect x="167.365" y="189.281" width="26.705" height="9.38849" rx="2.08633" transform="rotate(45 167.365 189.281)" fill="#E2E2E2"/>
</g>
<rect x="189.309" y="216.82" width="28.3741" height="8.34532" rx="2.08633" fill="#E2E2E2"/>
</g>
<defs>
<filter id="filter0_d" x="8" y="34" width="208" height="158" filterUnits="userSpaceOnUse" color-interpolation-filters="sRGB">
<feFlood flood-opacity="0" result="BackgroundImageFix"/>
<feColorMatrix in="SourceAlpha" type="matrix" values="0 0 0 0 0 0 0 0 0 0 0 0 0 0 0 0 0 0 127 0"/>
<feOffset dx="-4" dy="4"/>
<feGaussianBlur stdDeviation="2"/>
<feColorMatrix type="matrix" values="0 0 0 0 0 0 0 0 0 0 0 0 0 0 0 0 0 0 0.5 0"/>
<feBlend mode="normal" in2="BackgroundImageFix" result="effect1_dropShadow"/>
<feBlend mode="normal" in="SourceGraphic" in2="effect1_dropShadow" result="shape"/>
</filter>
<filter id="filter1_d" x="140" y="168" width="95" height="73.0935" filterUnits="userSpaceOnUse" color-interpolation-filters="sRGB">
<feFlood flood-opacity="0" result="BackgroundImageFix"/>
<feColorMatrix in="SourceAlpha" type="matrix" values="0 0 0 0 0 0 0 0 0 0 0 0 0 0 0 0 0 0 127 0"/>
<feOffset dx="-4" dy="4"/>
<feGaussianBlur stdDeviation="2"/>
<feColorMatrix type="matrix" values="0 0 0 0 0 0 0 0 0 0 0 0 0 0 0 0 0 0 0.25 0"/>
<feBlend mode="normal" in2="BackgroundImageFix" result="effect1_dropShadow"/>
<feBlend mode="normal" in="SourceGraphic" in2="effect1_dropShadow" result="shape"/>
</filter>
<filter id="filter2_d" x="159.058" y="189.281" width="27.191" height="27.6083" filterUnits="userSpaceOnUse" color-interpolation-filters="sRGB">
<feFlood flood-opacity="0" result="BackgroundImageFix"/>
<feColorMatrix in="SourceAlpha" type="matrix" values="0 0 0 0 0 0 0 0 0 0 0 0 0 0 0 0 0 0 127 0"/>
<feOffset dx="-0.834532" dy="1.2518"/>
<feGaussianBlur stdDeviation="0.417266"/>
<feColorMatrix type="matrix" values="0 0 0 0 0 0 0 0 0 0 0 0 0 0 0 0 0 0 0.25 0"/>
<feBlend mode="normal" in2="BackgroundImageFix" result="effect1_dropShadow"/>
<feBlend mode="normal" in="SourceGraphic" in2="effect1_dropShadow" result="shape"/>
</filter>
</defs>
</svg>
